<?xml version="1.0" encoding="UTF-8" standalone="no"?>
<!-- Created with Inkscape (http://www.inkscape.org/) -->

<svg
   version="1.1"
   id="svg1"
   width="634"
   height="100"
   viewBox="0 0 634 100"
   sodipodi:docname="teacup-pcb.svg"
   inkscape:version="1.4.3 (0d15f75, 2025-12-25)"
   xml:space="preserve"
   xmlns:inkscape="http://www.inkscape.org/namespaces/inkscape"
   xmlns:sodipodi="http://sodipodi.sourceforge.net/DTD/sodipodi-0.dtd"
   xmlns="http://www.w3.org/2000/svg"
   xmlns:svg="http://www.w3.org/2000/svg"><defs
     id="defs1" /><sodipodi:namedview
     id="namedview1"
     pagecolor="#ffffff"
     bordercolor="#000000"
     borderopacity="0.25"
     inkscape:showpageshadow="2"
     inkscape:pageopacity="0.0"
     inkscape:pagecheckerboard="0"
     inkscape:deskcolor="#d1d1d1"
     inkscape:zoom="0.7572933"
     inkscape:cx="431.80099"
     inkscape:cy="-15.845908"
     inkscape:window-width="1280"
     inkscape:window-height="764"
     inkscape:window-x="0"
     inkscape:window-y="0"
     inkscape:window-maximized="0"
     inkscape:current-layer="layer1"
     showguides="true"><sodipodi:guide
       position="25.23116,50.536833"
       orientation="-50,0"
       id="guide1"
       inkscape:locked="false" /><sodipodi:guide
       position="25.23116,100.53683"
       orientation="0,317"
       id="guide2"
       inkscape:locked="false" /><sodipodi:guide
       position="342.23116,100.53683"
       orientation="0,317"
       id="guide3"
       inkscape:locked="false" /><sodipodi:guide
       position="659.23116,100.53683"
       orientation="50,0"
       id="guide4"
       inkscape:locked="false" /><sodipodi:guide
       position="659.23116,50.536833"
       orientation="50,0"
       id="guide5"
       inkscape:locked="false" /><sodipodi:guide
       position="659.23116,0.536833"
       orientation="0,-317"
       id="guide6"
       inkscape:locked="false" /><sodipodi:guide
       position="342.23116,0.536833"
       orientation="0,-317"
       id="guide7"
       inkscape:locked="false" /><sodipodi:guide
       position="25.23116,0.536833"
       orientation="-50,-4.6185278e-14"
       id="guide8"
       inkscape:locked="false" /><sodipodi:guide
       position="59.072557,49.847777"
       orientation="-7.810945,2.787378"
       id="guide9"
       inkscape:locked="false" /><sodipodi:guide
       position="61.859935,57.658722"
       orientation="10.101685,4.313391"
       id="guide10"
       inkscape:locked="false" /><sodipodi:guide
       position="93.298616,47.592673"
       orientation="-10.138178,3.320445"
       id="guide11"
       inkscape:locked="false" /><sodipodi:guide
       position="47,42"
       orientation="5.097009,2.249452"
       id="guide12"
       inkscape:locked="false" /><sodipodi:guide
       position="92.051068,53.876931"
       orientation="9.659901,-3.452582"
       id="guide13"
       inkscape:locked="false" /><sodipodi:guide
       position="88.598486,44.21703"
       orientation="-9.409901,-4.140303"
       id="guide14"
       inkscape:locked="false" /><sodipodi:guide
       position="5.9051652,50.536833"
       orientation="-50,0"
       id="guide15"
       inkscape:locked="false" /><sodipodi:guide
       position="5.9051652,100.53683"
       orientation="0,317"
       id="guide16"
       inkscape:locked="false" /><sodipodi:guide
       position="322.90517,100.53683"
       orientation="0,317"
       id="guide17"
       inkscape:locked="false" /><sodipodi:guide
       position="639.90517,100.53683"
       orientation="50,0"
       id="guide18"
       inkscape:locked="false" /><sodipodi:guide
       position="639.90517,50.536833"
       orientation="50,0"
       id="guide19"
       inkscape:locked="false" /><sodipodi:guide
       position="639.90517,0.536833"
       orientation="0,-317"
       id="guide20"
       inkscape:locked="false" /><sodipodi:guide
       position="322.90517,0.536833"
       orientation="0,-317"
       id="guide21"
       inkscape:locked="false" /><sodipodi:guide
       position="5.9051652,0.536833"
       orientation="-50,0"
       id="guide22"
       inkscape:locked="false" /><sodipodi:guide
       position="39.746562,49.847778"
       orientation="-7.810944,2.787378"
       id="guide23"
       inkscape:locked="false" /><sodipodi:guide
       position="42.53394,57.658722"
       orientation="10.101685,4.313391"
       id="guide24"
       inkscape:locked="false" /><sodipodi:guide
       position="73.972621,47.592674"
       orientation="-10.138177,3.320446"
       id="guide25"
       inkscape:locked="false" /><sodipodi:guide
       position="77.293067,57.730851"
       orientation="5.097009,2.249451"
       id="guide26"
       inkscape:locked="false" /><sodipodi:guide
       position="72.725074,53.876932"
       orientation="9.659902,-3.452583"
       id="guide27"
       inkscape:locked="false" /><sodipodi:guide
       position="69.272491,44.21703"
       orientation="-9.409902,-4.140303"
       id="guide28"
       inkscape:locked="false" /></sodipodi:namedview><g
     inkscape:groupmode="layer"
     id="layer3"
     inkscape:label="F.Mask" /><g
     inkscape:groupmode="layer"
     id="layer1"
     inkscape:label="F.Cu"><path
       fill-rule="nonzero"
       fill="#000000"
       fill-opacity="1"
       d="m 288.7605,-236.61257 c -2.22087,-0.0333 -4.71693,0.34617 -7.34736,0.94927 -0.072,0.6246 -0.14833,1.24921 -0.23433,1.86843 2.76049,-0.66545 5.32213,-1.08687 7.53763,-1.05139 0.31925,0.003 0.63316,0.0193 0.93843,0.0419 2.77986,0.22576 4.77714,1.27394 5.88112,3.56917 3.13998,6.53092 -0.56111,23.38016 -8.53627,31.64192 -0.50415,0.52032 -1.02445,1.00624 -1.55763,1.45991 0.6407,0.22792 1.26846,0.45798 1.88227,0.69234 0.32143,-0.29672 0.63531,-0.60526 0.94383,-0.92562 8.30516,-8.60039 12.41903,-26.22475 8.85876,-33.63399 -1.45658,-3.02734 -4.13108,-4.30665 -7.33124,-4.56251 -0.33647,-0.028 -0.68261,-0.0441 -1.03521,-0.0495 z m 0,0"
       id="path18"
       style="stroke-width:0.275201" /><path
       fill-rule="nonzero"
       fill="#000000"
       fill-opacity="1"
       d="m 185.05244,-203.16672 c -20.33615,4.08089 -33.49048,11.17944 -33.61194,19.0961 -0.19778,12.74364 33.4195,24.41114 76.7534,25.0809 43.33712,0.66976 77.2984,-9.95281 77.49406,-22.69644 0.0903,-5.78269 -6.78089,-11.34284 -18.3636,-15.75484 -5.99075,5.5322 -13.93044,6.93191 -22.25173,7.15122 -4.68145,5.78484 -10.06916,10.47098 -15.96426,13.75848 -1.48344,0.82779 -3.00238,1.56742 -4.54925,2.21245 -1.18029,0.0968 -2.37459,0.18061 -3.58284,0.25157 -0.52565,0.0301 -1.05131,0.0591 -1.58235,0.0849 -0.003,0 -0.005,0 -0.007,0 -0.61918,0.0301 -1.24482,0.057 -1.86937,0.0806 -2.97442,0.11073 -6.01227,0.14513 -9.09419,0.0978 -3.07976,-0.0484 -6.11759,-0.17631 -9.08772,-0.37949 -2.39072,-0.16341 -4.73845,-0.37519 -7.02489,-0.6332 -1.5275,-0.69341 -3.01956,-1.47927 -4.47721,-2.35221 l 0.003,-0.001 h -0.003 c -8.56745,-5.13121 -15.93631,-13.28869 -21.47344,-23.48338 -0.28058,-0.5171 -0.55578,-1.03957 -0.82882,-1.5685 -0.12898,-0.25156 -0.25799,-0.50527 -0.39019,-0.76005 0,-0.001 0.003,-0.001 0.006,-0.001 -0.0301,-0.0613 -0.0634,-0.12256 -0.0935,-0.18384 z m 0,0"
       id="path17"
       style="stroke-width:0.275201" /><path
       fill-rule="nonzero"
       fill="#000000"
       fill-opacity="1"
       d="m 272.68121,-201.81215 c -0.0333,0.0602 -0.0656,0.1204 -0.0989,0.18061 -0.0226,-0.005 -0.0441,-0.0108 -0.0667,-0.0161 l -0.003,0.001 c 0.0248,0.004 0.0462,0.01 0.0688,0.0151 -0.13545,0.25049 -0.27305,0.50098 -0.41064,0.74931 -0.2881,0.51925 -0.58049,1.03312 -0.87502,1.54162 -1.49099,2.55002 -3.09268,4.96565 -4.80186,7.22863 7.23234,-0.32359 13.82293,-1.6846 18.94727,-6.02135 -3.82041,-1.35564 -8.09659,-2.59194 -12.76088,-3.67882 z m 0,0"
       id="path16"
       style="stroke-width:0.275201" /><path
       fill-rule="nonzero"
       fill="#000000"
       fill-opacity="1"
       d="m 176.99773,-244.90228 c 0.19781,15.78388 3.8774,30.30457 9.99717,42.11828 v 0.001 c 0,0 0,0 -0.003,0 h 0.003 c 0.27519,0.53 0.5536,1.05355 0.83952,1.5728 0,0 -0.003,0 -0.003,10e-4 h 0.003 c 6.1832,11.28909 14.64316,19.94002 24.40703,24.61326 5.06094,0.57837 10.4981,0.93744 16.2083,1.02559 5.71342,0.0882 11.15919,-0.10213 16.23084,-0.52462 9.90685,-4.369 18.63019,-12.75439 25.16057,-23.84782 -0.003,0 -0.003,0 -0.003,0 h 0.003 c 0.29993,-0.51065 0.59447,-1.0256 0.88364,-1.54699 6.4831,-11.61914 10.61095,-26.01619 11.29678,-41.78609 h -0.003 c -6.11437,7.68123 -28.10811,12.51357 -52.70969,12.13408 -24.60268,-0.37949 -46.43623,-5.88912 -52.30877,-13.76063 z m 0,0"
       id="path15"
       style="stroke-width:0.275201" /><path
       fill-rule="nonzero"
       fill="#000000"
       fill-opacity="1"
       d="m 221.88924,-331.93288 c -0.13221,0 -0.26658,0.028 -0.39666,0.0881 -0.005,0.003 -0.0107,0.005 -0.0162,0.009 h -0.003 c -0.3859,0.19781 -0.57295,0.64933 -0.4375,1.06215 3.04322,9.31853 5.93272,18.26079 4.46862,24.77128 -0.75677,3.35846 -2.68635,6.12134 -4.58794,8.81863 l -0.0735,0.10428 c -0.006,0.009 -0.007,0.0161 -0.0107,0.0215 h -0.003 c -1.649,2.34253 -3.32488,4.72269 -3.77097,7.31248 -0.006,0.0172 -0.007,0.0333 -0.007,0.0473 l -0.003,0.0161 c -0.87824,5.3473 3.54415,11.21814 7.69997,16.64284 l 0.20639,0.26661 0.201,0.26446 h 0.003 l 0.003,0.005 c 0.16768,0.21716 0.42137,0.33864 0.68473,0.34401 0.10212,0 0.20425,-0.014 0.30315,-0.0495 0.35797,-0.12363 0.59769,-0.46227 0.59447,-0.84284 -0.0527,-5.31719 -0.0882,-10.40217 2.1628,-15.27644 0.61918,-1.33736 1.41142,-2.66935 2.25959,-4.08412 h -0.003 l 0.0118,-0.0172 0.0462,-0.0795 c 2.20474,-3.68527 4.7062,-7.86829 4.216,-13.25106 -0.65465,-7.19423 -6.68195,-16.41922 -12.55985,-25.37438 l -0.12901,-0.19566 -0.12684,-0.19566 -0.005,-0.005 -0.003,-0.005 c -0.16445,-0.25049 -0.4375,-0.39132 -0.72345,-0.39669 z m 0,0"
       id="path22"
       style="stroke-width:0.275201" /><path
       fill-rule="nonzero"
       fill="#000000"
       fill-opacity="1"
       d="m 229.81709,-264.10373 c -29.77538,-0.46227 -52.66779,6.66853 -52.79462,14.88621 -0.0387,2.57582 2.1628,5.11293 6.11977,7.40064 9.73054,-4.9076 27.29974,-7.76938 46.44696,-7.47267 19.15044,0.29456 36.61967,3.69924 46.19329,8.90356 4.02896,-2.163 6.30789,-4.63132 6.34658,-7.20821 0.12576,-8.21767 -22.53336,-16.05048 -52.31198,-16.50953 z m 0,0"
       id="path20"
       style="stroke-width:0.275201" /><path
       fill-rule="nonzero"
       fill="#000000"
       fill-opacity="1"
       d="m 246.71444,-347.93606 c -0.13223,0 -0.26983,0.0269 -0.39666,0.0881 -0.39884,0.19244 -0.59447,0.64933 -0.45687,1.07075 3.04429,9.31853 5.93379,18.25971 4.46969,24.77451 -0.75462,3.352 -2.68096,6.1095 -4.57933,8.80358 l -0.009,0.0108 v 0.003 l -0.0742,0.10428 c -1.65328,2.3479 -3.33775,4.73881 -3.78386,7.33721 h -0.003 c -0.003,0.014 -0.007,0.028 -0.007,0.0441 l -0.003,0.014 c -0.88039,5.35051 3.542,11.22028 7.69996,16.64176 l 0.2064,0.26768 0.20102,0.26339 0.003,0.003 v 0.002 c 0.16771,0.21824 0.42352,0.34187 0.68798,0.34402 0.0989,0.003 0.201,-0.0129 0.2999,-0.0462 0.36119,-0.12363 0.59984,-0.46549 0.59769,-0.84499 -0.0527,-5.31396 -0.086,-10.40002 2.16283,-15.27429 0.61918,-1.34597 1.42001,-2.6801 2.2671,-4.10347 l 0.0473,-0.0774 c 2.20367,-3.68742 4.70298,-7.87044 4.216,-13.25428 -0.65573,-7.18778 -6.67119,-16.40203 -12.54588,-25.34966 l -0.14296,-0.22039 -0.13545,-0.20318 c -0.16448,-0.25049 -0.43752,-0.39347 -0.72344,-0.39884 z m 0,0"
       id="path21"
       style="stroke-width:0.275201" /><path
       fill-rule="nonzero"
       fill="#000000"
       fill-opacity="1"
       d="m 229.56124,-247.5254 c -19.16657,-0.29456 -35.32864,2.5511 -44.48945,6.73519 9.13073,4.4851 25.2455,7.78765 44.26157,8.08007 19.01824,0.29456 35.22437,-2.50702 44.48948,-6.70938 -9.0254,-4.46468 -25.09393,-7.80809 -44.2616,-8.10588 z m 0,0"
       id="path19"
       style="stroke-width:0.275201" /></g></svg>
